<svg id="Capa_1" enable-background="new 0 0 512.005 512.005" height="512" viewBox="0 0 512.005 512.005" width="512" xmlns="http://www.w3.org/2000/svg"><g><path d="m358.757 7.119c-2.739-4.424-7.558-7.119-12.759-7.119h-180c-6.885 0-12.876 4.688-14.546 11.367l-60 241c-1.128 4.482-.117 9.229 2.725 12.861 2.842 3.647 7.207 5.771 11.821 5.771h70.781l-55.327 222.367c-1.714 6.841 1.567 13.945 7.896 17.08 6.44 3.153 14.009 1.357 18.369-4.072l240-301c3.604-4.512 4.292-10.679 1.802-15.879-2.505-5.186-7.749-8.496-13.521-8.496h-95.728l79.146-159.291c2.329-4.643 2.08-10.165-.659-14.589z"/><path d="m359.929 341.434c-4.57-11.396-23.291-11.396-27.861 0-6.213 15.531-61.989 154.973-60 150-3.076 7.69.674 16.421 8.364 19.497 7.588 3.047 16.406-.674 19.497-8.364l20.226-50.567h51.687l20.226 50.566c3.109 7.793 11.953 11.406 19.497 8.364 7.69-3.076 11.44-11.807 8.364-19.497-2.098-5.245-63.657-159.14-60-149.999zm-27.775 80.566 13.845-34.614 13.844 34.614z"/></g></svg>