<svg xmlns="http://www.w3.org/2000/svg" width="393.399" height="467.045" viewBox="0 0 393.399 467.045">
  <path id="Path_1" data-name="Path 1" d="M582.82,356.811a169.054,169.054,0,0,0-28.525-27.091c-1.77-3.712-7.674-9.259-11.158-10.962a132.2,132.2,0,0,0-22.879-8.339,143.394,143.394,0,0,0,36.455-141.8A56.827,56.827,0,1,0,496.14,88.053,143.3,143.3,0,0,0,343.2,87.517a56.825,56.825,0,1,0-58.619,72.5,143.383,143.383,0,0,0,35.751,152.458,161.2,161.2,0,0,0-18.7,6.281c-3.7,1.534-9.8,7.633-11.335,11.335-.708,1.71-1.379,3.541-2.015,5.47a175.276,175.276,0,0,0-21.752,21.808c-35.9,42.818-45.539,93.842-21.537,113.964,11.114,9.318,27.495,10.37,45.445,4.569,1.721,3.723,7.588,9.541,11.194,11.035,55.78,23.1,187.259,26.51,241.5,0,3.6-1.76,9.8-7.633,11.335-11.335.246-.594.487-1.206.724-1.828,19.181,6.97,36.883,6.339,48.692-3.56C627.89,450.094,618.458,399.321,582.82,356.811Z" transform="translate(-227.782 -42.522)" fill="#cc67ad" stroke="#fe2bea" stroke-miterlimit="10" stroke-width="8" opacity="0.97"/>
</svg>
