<?xml version="1.0" encoding="iso-8859-1"?>
<!-- Generator: Adobe Illustrator 16.0.0, SVG Export Plug-In . SVG Version: 6.00 Build 0)  -->
<!DOCTYPE svg PUBLIC "-//W3C//DTD SVG 1.1//EN" "http://www.w3.org/Graphics/SVG/1.1/DTD/svg11.dtd">
<svg version="1.1" id="Capa_1" xmlns="http://www.w3.org/2000/svg" xmlns:xlink="http://www.w3.org/1999/xlink" x="0px" y="0px"
	 width="952.57px" height="952.57px" viewBox="0 0 952.57 952.57" style="enable-background:new 0 0 952.57 952.57;"
	 xml:space="preserve">
<g>
	<path d="M238.793,546.375h81.508L543.13,323.784l132.369-295.61C681.424,14.943,671.742,0,657.244,0H368.675
		c-9.132,0-17.104,6.186-19.373,15.031l-129.88,506.374C216.176,534.059,225.732,546.375,238.793,546.375z"/>
	<path d="M657.143,386.141h-7.987L415.265,619.523l-15.483,71.922l-45.863-0.025c-15.171-0.008-25.158,15.814-18.624,29.506
		l41.486,86.941l31.191,65.363l32.426,67.953c7.24,15.174,28.835,15.186,36.091,0.018l105.33-220.15
		c6.547-13.686-3.423-29.518-18.594-29.525L512.68,691.5l161.706-275.23C682.22,402.94,672.606,386.141,657.143,386.141z"/>
	<path d="M26.375,897.041c0.014,0,0.03,0,0.044,0l67.125,0.023c5.265-0.023,10.308-2.121,14.036-5.84l317.367-316.678
		l188.813-188.405L932.548,68.048c5.68-5.667,1.667-15.371-6.357-15.371l-68.334,0.321c-5.301,0-10.386,2.105-14.136,5.852
		L516.08,386.141L355.677,546.375L20.019,881.676C14.342,887.348,18.366,897.041,26.375,897.041z"/>
</g>
<g>
</g>
<g>
</g>
<g>
</g>
<g>
</g>
<g>
</g>
<g>
</g>
<g>
</g>
<g>
</g>
<g>
</g>
<g>
</g>
<g>
</g>
<g>
</g>
<g>
</g>
<g>
</g>
<g>
</g>
</svg>
