<svg xmlns="http://www.w3.org/2000/svg" width="40" height="40" viewBox="0 0 40 40">
  <g id="Ellipse_3" data-name="Ellipse 3" fill="#9a9898" stroke="#707070" stroke-linejoin="round" stroke-width="1">
    <circle cx="20" cy="20" r="20" stroke="none"/>
    <circle cx="20" cy="20" r="19.5" fill="none"/>
  </g>
  <g id="photo-camera" transform="translate(8 -17)">
    <g id="Group_31" data-name="Group 31" transform="translate(0 25)">
      <g id="Group_30" data-name="Group 30" transform="translate(0 0)">
        <path id="Path_36" data-name="Path 36" d="M136.952,157a5.952,5.952,0,1,0,5.952,5.952A5.959,5.959,0,0,0,136.952,157Zm0,10A4.048,4.048,0,1,1,141,162.952,4.052,4.052,0,0,1,136.952,167Z" transform="translate(-124.762 -150.714)" fill="#fff"/>
        <path id="Path_37" data-name="Path 37" d="M21.524,28.429h-3.5a.3.3,0,0,1-.262-.158l-.969-2.037-.008-.017A2.189,2.189,0,0,0,14.812,25H9.637a2.189,2.189,0,0,0-1.969,1.217l-.008.017L6.691,28.27a.3.3,0,0,1-.262.158H2.857A2.86,2.86,0,0,0,0,31.286V44.143A2.86,2.86,0,0,0,2.857,47H21.524a2.86,2.86,0,0,0,2.857-2.857V31.286A2.86,2.86,0,0,0,21.524,28.429Zm.952,15.714a.953.953,0,0,1-.952.952H2.857a.953.953,0,0,1-.952-.952V31.286a.953.953,0,0,1,.952-.952H6.429A2.189,2.189,0,0,0,8.4,29.117l.008-.017.969-2.037a.3.3,0,0,1,.262-.158h5.175a.3.3,0,0,1,.262.158l.969,2.037.008.017a2.189,2.189,0,0,0,1.969,1.217h3.5a.953.953,0,0,1,.952.952Z" transform="translate(0 -25)" fill="#fff"/>
        <rect id="Rectangle_13" data-name="Rectangle 13" width="1" height="2" transform="translate(19 7)" fill="#fff"/>
      </g>
    </g>
  </g>
</svg>
