<svg id="Layer_1" enable-background="new 0 0 512 512" height="512" viewBox="0 0 512 512" width="512" xmlns="http://www.w3.org/2000/svg"><path d="m512 255.763c0 50.53-14.998 99.674-43.374 142.116-6.138 9.182-18.558 11.649-27.742 5.51-9.182-6.139-11.649-18.56-5.51-27.742 96.518-140.992-8.841-337.29-179.377-335.882-119.1-.002-215.997 96.895-215.997 215.998v205.947c.023 8.174 9.082 12.872 15.779 8.161l52.832-37.422c6.913-4.898 16.16-4.907 23.085-.025 68.033 49.119 164.742 52.328 236.041 8.232 9.447-5.724 21.745-2.705 27.469 6.744 5.723 9.447 2.703 21.745-6.744 27.469-80.299 49.627-188.459 48.968-267.923-1.851l-41.639 29.494c-15.317 10.85-35.191 12.235-51.867 3.611-16.675-8.623-27.033-25.64-27.033-44.413v-205.947c0-68.38 26.629-132.667 74.98-181.02 95.292-99.313 266.75-99.309 362.039 0 48.352 48.353 74.981 112.64 74.981 181.02zm-135.137-74.626-74.704 56.87c-5.05 3.792-12.005 3.839-17.103.047l-55.309-42.235c-16.579-12.371-40.303-8.01-51.355 9.432l-69.547 110.255c-6.717 10.522 6.336 22.419 16.293 14.883l74.74-57.382c5.05-3.792 12.005-3.839 17.103-.047l55.309 42.747c16.578 12.371 40.303 8.01 51.355-9.432l69.512-110.255c6.716-10.523-6.338-22.42-16.294-14.883z"/></svg>