<svg xmlns="http://www.w3.org/2000/svg" xmlns:xlink="http://www.w3.org/1999/xlink" width="232.885" height="431.87" viewBox="0 0 232.885 431.87">
  <defs>
    <linearGradient id="linear-gradient" x1="0.042" y1="0.035" x2="1" y2="0.941" gradientUnits="objectBoundingBox">
      <stop offset="0" stop-color="#d100ed"/>
      <stop offset="0.194" stop-color="#d200d5"/>
      <stop offset="0.43" stop-color="#be00c0"/>
      <stop offset="0.659" stop-color="#b200b4"/>
      <stop offset="0.872" stop-color="#b000ac"/>
    </linearGradient>
  </defs>
  <path id="Path_1" data-name="Path 1" d="M511.237,324.459C527.792,352.986,535.9,391.5,524.965,439.1c-3.061,13.326-15.7,23.025-33.15,29.343A12.035,12.035,0,0,1,479.988,478.5h-13.8a11.918,11.918,0,0,1-7.4-2.586,232.652,232.652,0,0,1-62.78-1.18A11.958,11.958,0,0,1,387.3,478.5H373.5a12.035,12.035,0,0,1-12-12v-.985c-10.542-4.344-19.035-9.828-24.273-16.4-32.914-41.3-18.821-91.267,8.411-128.582-17-17.125-27.057-39.386-26.489-63.512a83.67,83.67,0,0,1,14.567-44.991c-3.165-9.316-6.077-19.185-8.644-29.464-16.406-65.685-12.56-123.215,8.589-128.5s51.594,43.683,68,109.368q.531,2.124,1.029,4.233a128.771,128.771,0,0,1,29.472-2.681q6.1.143,12.017.84c19.484-64.755,52.161-112.148,73.02-105.881,20.878,6.272,22.011,63.919,2.533,128.759q-1.808,6.014-3.76,11.819c15.943,16.871,25.293,38.423,24.745,61.711C540.148,286.375,529.044,308.15,511.237,324.459Z" transform="translate(-311.356 -50.13)" stroke="#c457ba" stroke-miterlimit="10" stroke-width="7" fill="url(#linear-gradient)"/>
</svg>
