<svg xmlns="http://www.w3.org/2000/svg" width="148.938" height="37" viewBox="0 0 148.938 37">
  <g id="Path_35" data-name="Path 35" fill="#9a9898">
    <path d="M 131.4986114501953 36.5 L 17.43889045715332 36.5 C 12.91994953155518 36.5 8.669890403747559 34.63143920898438 5.471570014953613 31.23850059509277 C 2.265609979629517 27.83748054504395 0.5000100135803223 23.31352043151855 0.5000100135803223 18.5 C 0.5000100135803223 13.61285972595215 2.102829933166504 9.083840370178223 5.013209819793701 5.747200012207031 C 7.96465015411377 2.363480091094971 12.0427303314209 0.5 16.49625015258789 0.5 L 131.4986114501953 0.5 C 136.0175476074219 0.5 140.2676239013672 2.368560075759888 143.4659423828125 5.761499881744385 C 146.6719055175781 9.162540435791016 148.4375152587891 13.68647956848145 148.4375152587891 18.5 C 148.4375152587891 23.31352043151855 146.6719055175781 27.83745956420898 143.4659423828125 31.23850059509277 C 140.2676239013672 34.63143920898438 136.0175476074219 36.5 131.4986114501953 36.5 Z" stroke="none"/>
    <path d="M 16.49624633789063 1 C 14.29643249511719 1 12.20491027832031 1.457359313964844 10.27981567382813 2.359359741210938 C 8.430389404296875 3.225898742675781 6.78521728515625 4.476318359375 5.3900146484375 6.075859069824219 C 2.559066772460938 9.321420669555664 0.9999847412109375 13.73373985290527 0.9999847412109375 18.5 C 0.9999847412109375 23.18550109863281 2.71722412109375 27.58765983581543 5.83538818359375 30.89554023742676 C 8.938247680664063 34.18719863891602 13.05912780761719 36 17.43888854980469 36 L 131.4986114501953 36 C 135.8783721923828 36 139.9992523193359 34.18719863891602 143.1020965576172 30.89554023742676 C 146.2202453613281 27.58765983581543 147.9374847412109 23.18550109863281 147.9374847412109 18.5 C 147.9374847412109 13.81450080871582 146.2202453613281 9.41234016418457 143.1020965576172 6.104459762573242 C 139.9992523193359 2.812801361083984 135.8783721923828 1 131.4986114501953 1 L 16.49624633789063 1 M 16.49624633789063 0 L 131.4986114501953 0 C 141.1298522949219 0 148.9374847412109 8.282739639282227 148.9374847412109 18.5 C 148.9374847412109 28.71726036071777 141.1298522949219 37 131.4986114501953 37 L 17.43888854980469 37 C 7.807647705078125 37 -1.52587890625e-05 28.71726036071777 -1.52587890625e-05 18.5 C -1.52587890625e-05 8.282739639282227 6.865005493164063 0 16.49624633789063 0 Z" stroke="none" fill="#707070"/>
  </g>
  <g id="copy" transform="translate(8 9)">
    <g id="Group_27" data-name="Group 27" transform="translate(0 3.163)">
      <g id="Group_26" data-name="Group 26">
        <path id="Path_33" data-name="Path 33" d="M12.652,85.333H1.9a1.9,1.9,0,0,0-1.9,1.9V97.985a1.9,1.9,0,0,0,1.9,1.9H12.652a1.9,1.9,0,0,0,1.9-1.9V87.231A1.9,1.9,0,0,0,12.652,85.333Zm.633,12.652a.633.633,0,0,1-.633.633H1.9a.633.633,0,0,1-.633-.633V87.231A.633.633,0,0,1,1.9,86.6H12.652a.633.633,0,0,1,.633.633Z" transform="translate(0 -85.333)" fill="#fff"/>
      </g>
    </g>
    <g id="Group_29" data-name="Group 29" transform="translate(2.53)">
      <g id="Group_28" data-name="Group 28">
        <path id="Path_34" data-name="Path 34" d="M81.552,0H70.165a1.9,1.9,0,0,0-1.9,1.9.633.633,0,1,0,1.265,0,.633.633,0,0,1,.633-.633H81.552a.633.633,0,0,1,.633.633V13.285a.633.633,0,0,1-.633.633.633.633,0,0,0,0,1.265,1.9,1.9,0,0,0,1.9-1.9V1.9A1.9,1.9,0,0,0,81.552,0Z" transform="translate(-68.267)" fill="#fff"/>
      </g>
    </g>
  </g>
  <text id="SELECT_MULTIPLE" data-name="SELECT MULTIPLE" transform="translate(29 23)" fill="#fff" font-size="13" font-family="ArialNarrow, Arial"><tspan x="0" y="0">SELECT MULTIPLE</tspan></text>
</svg>
