<?xml version="1.0" encoding="iso-8859-1"?>
<!-- Generator: Adobe Illustrator 19.0.0, SVG Export Plug-In . SVG Version: 6.00 Build 0)  -->
<svg version="1.1" id="Capa_1" xmlns="http://www.w3.org/2000/svg" xmlns:xlink="http://www.w3.org/1999/xlink" x="0px" y="0px"
	 viewBox="0 0 512 512" style="enable-background:new 0 0 512 512;" xml:space="preserve">
<g>
	<g>
		<path d="M496.08,210.528c-1.632-8.704-9.888-14.4-18.656-12.8c-8.672,1.632-14.4,9.984-12.768,18.656
			c2.368,12.736,3.552,26.048,3.552,39.616c0,14.88-1.984,29.568-4.928,44.096c-7.072-10.752-16.608-19.84-28.128-26.176
			c0.704-5.856,1.056-11.712,1.056-17.92c0-9.12-0.672-18.272-2.08-27.392c-1.344-8.736-9.664-14.656-18.24-13.376
			c-8.704,1.344-14.72,9.504-13.376,18.24c1.12,7.52,1.696,15.04,1.696,22.528c0,0.992-0.128,1.888-0.16,2.848
			c-50.464-31.168-90.784-108.096-81.376-163.104c0.128-0.512,0.256-1.024,0.352-1.536c0.8-4.736,1.184-9.472,1.184-14.208
			c0-44.096-35.872-80-80-80c-60.64,0-119.232,21.728-164.992,61.152c-6.688,5.76-7.456,15.872-1.696,22.56
			c3.168,3.68,7.648,5.568,12.128,5.568c3.712,0,7.424-1.28,10.432-3.872c21.536-18.528,46.432-32.16,72.96-41.184
			c-5.472,10.816-8.832,22.848-8.832,35.776c0,1.152,0.224,2.272,0.288,3.424c-2.496-0.064-5.024,0.288-7.424,1.472
			c-10.432,5.184-21.056,12.032-31.552,20.288c-6.944,5.472-8.128,15.52-2.688,22.464c3.168,4.032,7.872,6.112,12.608,6.112
			c3.456,0,6.944-1.12,9.888-3.424c7.2-5.664,14.368-10.272,21.408-14.176c-1.824,59.744-48.864,133.728-101.632,152.416
			C33.2,279.84,11.792,310.144,11.792,344c0,14.368,4.096,27.68,10.784,39.36c0.064,0.096,0.032,0.224,0.096,0.32
			c0.128,0.224,0.288,0.448,0.448,0.704c1.312,2.208,2.592,4.384,4.096,6.464c30.336,48.928,76.192,86.528,130.272,106.112
			c1.792,0.672,3.648,0.96,5.44,0.96c6.56,0,12.672-4.032,15.04-10.528c3.008-8.32-1.28-17.504-9.6-20.512
			c-26.688-9.696-50.848-24.672-71.872-43.296c13.728-0.832,26.912-5.056,38.368-12.448c1.216,2.368,2.848,4.544,5.216,6.112
			c10.176,6.656,21.184,12.32,32.672,16.8c1.92,0.8,3.904,1.152,5.856,1.152c6.368,0,12.416-3.84,14.88-10.144
			c3.232-8.224-0.8-17.504-9.024-20.704c-7.872-3.136-15.232-7.232-22.368-11.552c52.64-28.128,140.064-24.256,182.56,12.064
			c14.432,12.384,32.896,19.2,51.968,19.2c29.504,0,55.072-16.256,68.928-40.096c0.064-0.096,0.16-0.128,0.192-0.192
			c0.384-0.704,0.608-1.408,0.992-2.048c1.472-2.72,2.976-5.408,4.128-8.32c18.912-36.288,29.344-76.512,29.344-117.408
			C500.208,240.48,498.832,225.184,496.08,210.528z M244.208,320c-35.36,0-64-28.64-64-64s28.64-64,64-64s64,28.64,64,64
			S279.568,320,244.208,320z"/>
	</g>
</g>
<g>
	<g>
		<path d="M481.872,161.632c-4.16-10.88-9.44-21.824-16.128-33.344c-4.48-7.712-14.272-10.24-21.888-5.824
			c-7.616,4.448-10.24,14.208-5.824,21.856c5.824,10.048,10.4,19.456,13.952,28.768c2.432,6.368,8.512,10.272,14.944,10.272
			c1.92,0,3.84-0.352,5.728-1.056C480.912,179.136,485.04,169.888,481.872,161.632z"/>
	</g>
</g>
<g>
	<g>
		<path d="M66.192,95.488c-6.816-5.632-16.896-4.64-22.496,2.208c-7.36,8.96-14.24,18.976-20.992,30.592
			c-4.448,7.616-1.856,17.408,5.76,21.856c2.528,1.472,5.312,2.176,8.032,2.176c5.504,0,10.88-2.848,13.856-7.968
			c5.856-10.08,11.776-18.72,18.048-26.336C74,111.2,73.04,101.12,66.192,95.488z"/>
	</g>
</g>
<g>
	<g>
		<path d="M244.208,480c-10.368,0-20.928-0.768-32.32-2.4c-8.672-0.992-16.832,4.832-18.08,13.6
			c-1.248,8.736,4.832,16.832,13.6,18.08c12.864,1.856,24.896,2.72,36.8,2.72c8.832,0,16-7.168,16-16
			C260.208,487.168,253.04,480,244.208,480z"/>
	</g>
</g>
<g>
	<g>
		<path d="M419.792,178.432c-2.816-6.304-5.984-12.64-9.504-18.592c-4.544-7.648-14.336-10.112-21.952-5.6
			c-7.584,4.512-10.112,14.304-5.632,21.92c2.944,4.896,5.536,10.112,7.84,15.296c2.656,5.952,8.512,9.472,14.624,9.472
			c2.176,0,4.416-0.448,6.496-1.376C419.76,195.968,423.376,186.496,419.792,178.432z"/>
	</g>
</g>
<g>
	<g>
		<path d="M112.528,139.904c-6.88-5.568-16.96-4.544-22.496,2.336c-4.672,5.792-8.32,11.552-11.936,17.664
			c-4.48,7.616-1.92,17.408,5.696,21.888c2.56,1.504,5.344,2.208,8.096,2.208c5.504,0,10.848-2.816,13.824-7.904
			c2.784-4.736,5.536-9.248,9.184-13.696C120.432,155.52,119.376,145.44,112.528,139.904z"/>
	</g>
</g>
<g>
	<g>
		<path d="M244.208,416c-5.824,0-11.616-0.288-17.152-0.864c-8.608-1.088-16.672,5.408-17.632,14.176s5.408,16.672,14.176,17.632
			c6.624,0.704,13.632,1.056,20.608,1.056c8.832,0,16-7.168,16-16C260.208,423.168,253.04,416,244.208,416z"/>
	</g>
</g>
<g>
</g>
<g>
</g>
<g>
</g>
<g>
</g>
<g>
</g>
<g>
</g>
<g>
</g>
<g>
</g>
<g>
</g>
<g>
</g>
<g>
</g>
<g>
</g>
<g>
</g>
<g>
</g>
<g>
</g>
</svg>
