<svg xmlns="http://www.w3.org/2000/svg" width="52.8" height="44" viewBox="0 0 52.8 44">
  <g id="rotate" transform="translate(0 -42.667)" style="isolation: isolate">
    <g id="Group_35" data-name="Group 35" transform="translate(0 42.667)">
      <g id="Group_34" data-name="Group 34" transform="translate(0 0)">
        <path id="Path_47" data-name="Path 47" d="M407.534,170.667a2.2,2.2,0,1,0,2.2,2.2A2.2,2.2,0,0,0,407.534,170.667Zm0,2.2v0l1.1,0Z" transform="translate(-363.534 -157.467)" fill="#000"/>
        <path id="Path_48" data-name="Path 48" d="M48.4,49.267H41.423a3.282,3.282,0,0,1-2.334-.967l-4.022-4.022a5.461,5.461,0,0,0-3.89-1.611H21.623a5.461,5.461,0,0,0-3.89,1.611L13.711,48.3a3.282,3.282,0,0,1-2.334.967H4.4a4.405,4.405,0,0,0-4.4,4.4v28.6a4.405,4.405,0,0,0,4.4,4.4h44a4.405,4.405,0,0,0,4.4-4.4v-28.6A4.405,4.405,0,0,0,48.4,49.267Zm2.2,33a2.2,2.2,0,0,1-2.2,2.2H4.4a2.2,2.2,0,0,1-2.2-2.2v-28.6a2.2,2.2,0,0,1,2.2-2.2h6.977a5.461,5.461,0,0,0,3.89-1.611l4.022-4.022a3.282,3.282,0,0,1,2.334-.967h9.554a3.282,3.282,0,0,1,2.334.967l4.022,4.022a5.461,5.461,0,0,0,3.89,1.611H48.4a2.2,2.2,0,0,1,2.2,2.2v28.6Z" transform="translate(0 -42.667)" fill="#000000"/>
        <path id="Path_49" data-name="Path 49" d="M246.431,149.333a1.1,1.1,0,0,0-.778,1.878l3.3,3.3a1.1,1.1,0,1,0,1.555-1.555l-.978-.978a10.994,10.994,0,0,1,.9,20.793,1.1,1.1,0,0,0,.8,2.05,13.195,13.195,0,0,0-4.8-25.487Z" transform="translate(-220.031 -138.333)" fill="#000"/>
        <path id="Path_50" data-name="Path 50" d="M138.678,177.66a1.1,1.1,0,1,0-1.555,1.555l.978.978a10.993,10.993,0,0,1-.848-20.812,1.1,1.1,0,0,0-.793-2.054,13.195,13.195,0,0,0,4.741,25.511,1.1,1.1,0,0,0,.778-1.878Z" transform="translate(-114.8 -145.437)" fill="#000"/>
      </g>
    </g>
  </g>
</svg>
