<svg id="Capa_1" enable-background="new 0 0 512 512" height="512" viewBox="0 0 512 512" width="512" xmlns="http://www.w3.org/2000/svg"><g><g><g><g><path d="m490.841 105.342v265.891c0 11.353-9.2 20.552-20.552 20.552h-428.588c-11.353 0-20.552-9.2-20.552-20.552v-265.891c0-11.353 9.2-20.552 20.552-20.552h428.588c11.352 0 20.552 9.199 20.552 20.552z" fill="#3f5959"/><path d="m490.843 105.344v265.893c0 11.344-9.196 20.55-20.55 20.55h-30.825c11.354 0 20.55-9.206 20.55-20.55v-265.893c0-11.354-9.196-20.55-20.55-20.55h30.825c11.354 0 20.55 9.196 20.55 20.55z" fill="#384848"/><path d="m343.586 118.697v239.178h-289.543c-2.843 0-5.151-2.308-5.151-5.151v-228.876c0-2.843 2.308-5.151 5.151-5.151z" fill="#fb54b6"/><path d="m304.913 118.697h38.673v239.178h-38.673z" fill="#fb33a8"/><path d="m333.289 118.698v239.18h124.661c2.845 0 5.151-2.306 5.151-5.151v-228.879c0-2.845-2.306-5.151-5.151-5.151h-124.661z" fill="#eef4f5"/><path d="m433.305 118.698v239.18h24.645c2.845 0 5.151-2.306 5.151-5.151v-228.879c0-2.845-2.306-5.151-5.151-5.151h-24.645z" fill="#cbe5e7"/><g><path d="m511.743 396.455-2.081 6.387c-4.729 14.536-18.275 24.364-33.563 24.364h-440.198c-15.288 0-28.835-9.828-33.563-24.364l-2.081-6.387c-1.082-3.327 1.391-6.727 4.883-6.727h214.134l3.276 9.962c2.771 8.427 10.642 14.124 19.522 14.124h27.856c8.88 0 16.751-5.697 19.522-14.124l3.276-9.962h214.134c3.493 0 5.965 3.4 4.883 6.727z" fill="#557983"/><path d="m511.742 396.456-2.076 6.381c-4.737 14.539-18.279 24.372-33.558 24.372h-29.468c15.289 0 28.831-9.833 33.568-24.372l2.075-6.381c1.079-3.329-1.387-6.73-4.881-6.73h29.458c3.495 0 5.961 3.401 4.882 6.73z" fill="#3f5959"/><path d="m281.26 427.21h-50.52c-8.875 0-16.748-5.698-19.521-14.129l-7.683-23.357h104.928l-7.683 23.357c-2.773 8.431-10.645 14.129-19.521 14.129z" fill="#384848"/></g><g><path d="m315.819 84.79h66.786" fill="#eef4f5"/></g><g><path d="m65.766 415.792v11.414h-15.453v-11.414c0-4.265 3.461-7.726 7.726-7.726s7.727 3.461 7.727 7.726z" fill="#384848"/></g><g><path d="m89.368 415.792v11.414h-15.453v-11.414c0-4.265 3.461-7.726 7.726-7.726s7.727 3.461 7.727 7.726z" fill="#384848"/></g><g><path d="m112.979 415.792v11.414h-15.452v-11.414c0-4.265 3.451-7.726 7.726-7.726 4.265 0 7.726 3.461 7.726 7.726z" fill="#384848"/></g></g></g><g><path d="m119.623 165.673h-14.375c-4.267 0-7.726-3.459-7.726-7.726s3.459-7.726 7.726-7.726h14.375c4.267 0 7.726 3.459 7.726 7.726s-3.459 7.726-7.726 7.726z" fill="#e2249a"/></g></g><g><path d="m162.023 182.071v81.402c0 3.935 4.233 6.416 7.667 4.495l72.724-40.701c3.514-1.967 3.514-7.023 0-8.99l-72.724-40.701c-3.434-1.922-7.667.56-7.667 4.495z" fill="#eef4f5"/></g><g><g><path d="m304.914 319.394h-221.672c-4.267 0-7.726-3.459-7.726-7.726 0-4.268 3.459-7.726 7.726-7.726h221.672c4.267 0 7.726 3.459 7.726 7.726.001 4.267-3.459 7.726-7.726 7.726z" fill="#e2249a"/></g><g><path d="m239.01 327.608c-4.267 0-7.726-3.459-7.726-7.726v-16.428c0-4.268 3.459-7.726 7.726-7.726s7.726 3.459 7.726 7.726v16.428c.001 4.267-3.458 7.726-7.726 7.726z" fill="#eef4f5"/></g></g><g><g><path d="m426.448 190.356h-53.099c-5.69 0-10.302-4.612-10.302-10.302v-13.328c0-5.69 4.612-10.302 10.302-10.302h53.099c5.69 0 10.302 4.612 10.302 10.302v13.328c0 5.69-4.612 10.302-10.302 10.302z" fill="#3f5959"/><path d="m436.746 166.724v13.331c0 5.687-4.605 10.302-10.302 10.302h-23.499c5.687 0 10.302-4.615 10.302-10.302v-13.331c0-5.687-4.615-10.302-10.302-10.302h23.499c5.697 0 10.302 4.616 10.302 10.302z" fill="#384848"/></g><g><path d="m426.448 255.253h-53.099c-5.69 0-10.302-4.612-10.302-10.302v-13.328c0-5.69 4.612-10.302 10.302-10.302h53.099c5.69 0 10.302 4.612 10.302 10.302v13.328c0 5.69-4.612 10.302-10.302 10.302z" fill="#3f5959"/><path d="m436.746 231.626v13.331c0 5.687-4.605 10.302-10.302 10.302h-23.499c5.687 0 10.302-4.615 10.302-10.302v-13.331c0-5.697-4.615-10.302-10.302-10.302h23.499c5.697 0 10.302 4.605 10.302 10.302z" fill="#384848"/></g><g><path d="m426.448 320.15h-53.099c-5.69 0-10.302-4.612-10.302-10.302v-13.328c0-5.69 4.612-10.302 10.302-10.302h53.099c5.69 0 10.302 4.612 10.302 10.302v13.328c0 5.69-4.612 10.302-10.302 10.302z" fill="#3f5959"/><path d="m436.746 296.517v13.331c0 5.687-4.605 10.302-10.302 10.302h-23.499c5.687 0 10.302-4.615 10.302-10.302v-13.331c0-5.687-4.615-10.302-10.302-10.302h23.499c5.697 0 10.302 4.616 10.302 10.302z" fill="#384848"/></g></g></g></svg>