<svg height="512pt" viewBox="0 -31 512 512" width="512pt" xmlns="http://www.w3.org/2000/svg"><path d="m512 90v270l-41.398438 16.800781h-443.300781l-27.300781-16.800781v-270l25.199219-13.199219h455zm0 0" fill="#e63950"/><path d="m512 225v135l-41.398438 16.800781h-443.300781l-27.300781-16.800781v-135zm0 0" fill="#cc2e43"/><path d="m325 213-120-90c-4.5-3.300781-10.5-3.902344-15.597656-1.5-5.101563 2.699219-8.402344 7.800781-8.402344 13.5v180c0 5.699219 3.300781 10.800781 8.402344 13.5 2.097656.898438 4.199218 1.5 6.597656 1.5 3.300781 0 6.300781-.902344 9-3l120-90c3.898438-2.699219 6-7.199219 6-12s-2.101562-9.300781-6-12zm0 0" fill="#c6e2e7"/><path d="m0 360v45c0 24.8125 20.1875 45 45 45h422c24.8125 0 45-20.1875 45-45v-45zm271 30h90v30h-90zm-30 30h-90v-30h90zm-211-15v-15h91v30h-76c-8.277344 0-15-6.722656-15-15zm452 0c0 8.277344-6.722656 15-15 15h-76v-30h91zm0 0" fill="#465a61"/><path d="m467 0h-422c-24.8125 0-45 20.1875-45 45v45h512v-45c0-24.8125-20.1875-45-45-45zm-196 30h90v30h-90zm-30 30h-90v-30h90zm-211-15c0-8.277344 6.722656-15 15-15h76v30h-91zm452 15h-91v-30h76c8.277344 0 15 6.722656 15 15zm0 0" fill="#596c76"/><path d="m331 225c0 4.800781-2.101562 9.300781-6 12l-120 90c-2.699219 2.097656-5.699219 3-9 3-2.402344 0-4.5-.601562-6.597656-1.5-5.101563-2.699219-8.402344-7.800781-8.402344-13.5v-90zm0 0" fill="#a8d3d8"/></svg>